<?xml version="1.0" encoding="UTF-8"?>
<svg fill="none" stroke-linecap="square" stroke-miterlimit="10" version="1.1" viewBox="0.0 0.0 348.0 348.0" xmlns="http://www.w3.org/2000/svg" xmlns:cc="http://creativecommons.org/ns#" xmlns:dc="http://purl.org/dc/elements/1.1/" xmlns:rdf="http://www.w3.org/1999/02/22-rdf-syntax-ns#">
<metadata>
<rdf:RDF>
<cc:Work rdf:about="">
<dc:format>image/svg+xml</dc:format>
<dc:type rdf:resource="http://purl.org/dc/dcmitype/StillImage"/>
</cc:Work>
</rdf:RDF>
</metadata>
<clipPath id="a">
<path d="m0 0h348v348h-348v-348z"/>
</clipPath>
<g clip-path="url(#a)">
<path d="m0 0h348v348h-348z" fill="#000" fill-opacity="0"/>
<path d="m-6 0h348v347.97h-348z" fill="#fff"/>
<path d="m5.0787 5.7758h336.91v337.67h-336.91z" fill="#000" fill-opacity="0"/>
<path d="m5.0787 5.7758h336.91v337.67h-336.91z" stroke="#000" stroke-linecap="butt" stroke-linejoin="round" stroke-width="2"/>
<path d="m282.73 40.554c0-8.3756 6.966-15.165 15.559-15.165 4.1265 0 8.084 1.5978 11.002 4.4418 2.9179 2.8441 4.5571 6.7014 4.5571 10.724 0 8.3756-6.966 15.165-15.559 15.165-8.593 0-15.559-6.7898-15.559-15.165z" fill="#fff"/>
<path d="m282.73 40.554c0-8.3756 6.966-15.165 15.559-15.165 4.1265 0 8.084 1.5978 11.002 4.4418 2.9179 2.8441 4.5571 6.7014 4.5571 10.724 0 8.3756-6.966 15.165-15.559 15.165-8.593 0-15.559-6.7898-15.559-15.165z" stroke="#000" stroke-linecap="butt" stroke-linejoin="round" stroke-width="2"/>
</g>
<rect x="21.675" y="19.408" width="161.1" height="53.453" ry="2.7756e-17" fill="#fff" stroke="#000"/>
<rect x="184.77" y="19.38" width="66.659" height="53.481" ry="2.9608e-17" fill="#fff" stroke="#000" stroke-width="1.0049"/>
<text x="195.76372" y="59.828522" fill="#000000" font-family="sans-serif" font-size="40px" letter-spacing="0px" word-spacing="0px" style="line-height:1.25" xml:space="preserve"><tspan x="195.76372" y="59.828522">Tu</tspan></text>
<text x="44.619663" y="56.70047" fill="#000000" font-family="sans-serif" font-size="40px" letter-spacing="0px" word-spacing="0px" style="line-height:1.25" xml:space="preserve"><tspan x="44.619663" y="56.70047">Bryan</tspan></text>
<rect x="268.49" y="88.183" width="54.35" height="40.143" ry="2.7756e-17" fill="#fff" stroke="#000"/>
<rect x="268.49" y="198.33" width="54.35" height="40.143" ry="2.7756e-17" fill="#fff" stroke="#000"/>
<text x="269.47882" y="122.51694" fill="#000000" font-family="sans-serif" font-size="40px" letter-spacing="0px" word-spacing="0px" style="line-height:1.25" xml:space="preserve"><tspan x="269.47882" y="122.51694">12</tspan></text>
<text transform="scale(1.0111 .98906)" x="266.17828" y="233.80603" fill="#000000" font-family="sans-serif" font-size="35.7px" letter-spacing="0px" stroke-width=".89251" word-spacing="0px" style="line-height:1.25" xml:space="preserve"><tspan x="266.17828" y="233.80603" stroke-width=".89251">PM</tspan></text>
<path transform="matrix(1 0 0 .56664 0 17.55)" d="m279.96 114.96 7.6144-12.998 7.6143-12.998 7.4497 13.093 7.4497 13.093-15.064-0.0951z" fill="#fff" stroke="#000"/>
<path transform="matrix(-1 0 0 -.56664 590.05 199.94)" d="m279.96 114.96 7.6144-12.998 7.6143-12.998 7.4497 13.093 7.4497 13.093-15.064-0.0951z" fill="#fff" stroke="#000"/>
<path transform="matrix(1 0 0 .56664 0 127.55)" d="m279.96 114.96 7.6144-12.998 7.6143-12.998 7.4497 13.093 7.4497 13.093-15.064-0.0951z" fill="#fff" stroke="#000"/>
<path transform="matrix(-1 0 0 -.56664 590.05 309.94)" d="m279.96 114.96 7.6144-12.998 7.6143-12.998 7.4497 13.093 7.4497 13.093-15.064-0.0951z" fill="#fff" stroke="#000"/>
<rect x="257.34" y="286.28" width="77.3" height="30.38" ry="2.7648e-17" fill="#fff" stroke="#000" stroke-width="1.1188"/>
<text transform="scale(.90605 1.1037)" x="285.93167" y="281.26071" fill="#000000" font-family="sans-serif" font-size="22.831px" letter-spacing="0px" stroke-width=".57078" word-spacing="0px" style="line-height:1.25" xml:space="preserve"><tspan x="285.93167" y="281.26071" stroke-width=".57078">Submit</tspan></text>
<rect x="22.157" y="84.462" width="228.09" height="232" ry="2.7756e-17" fill="#fff" stroke="#000"/>
<path d="m56.305 113.92c-0.14617 3.2459 4.2528 2.7162 5.7348 4.6921 0.11658 0.15543 0.17378 0.34756 0.26067 0.52134 0.60823 0.69512 1.1982 1.4067 1.8247 2.0854 0.47668 0.51641 1.7575 1.5263 2.0854 2.346 0.06454 0.16135-0.05496 0.35648 0 0.52134 0.07772 0.23315 0.41143 0.30153 0.52134 0.52134 0.03886 0.0777-0.02748 0.17824 0 0.26067 0.06144 0.18433 0.19923 0.33702 0.26067 0.52135 0.04313 0.12938 0.0222 0.75981 0 0.78201-0.06144 0.0614-0.17378 0-0.26067 0-0.17124 0-0.98139 0.0307-1.0427 0-0.07772-0.0389 0-0.17378 0-0.26067" fill="none" stroke="#000" stroke-linecap="butt" stroke-width="1px"/>
<path d="m62.561 147.54c3.8003-4.8861 2.2483-3.291 4.1707-5.2134 0.26067-0.26067 0.54601-0.49881 0.78201-0.78201 0.20056-0.24067 0.31746-0.54415 0.52134-0.78201 1.4228-1.6599 2.8983-3.159 4.4314-4.6921 1.9405-1.9405-0.5161 0.44237 1.8247-1.564 0.55979-0.47982 1.0042-1.0842 1.564-1.564 0.32986-0.28274 0.71282-0.49928 1.0427-0.78202 0.2799-0.23991 0.49881-0.54601 0.78201-0.78201 0.88806-0.74005 0.88561-0.36426 1.8247-1.3034 0.3072-0.3072 0.45215-0.75995 0.78201-1.0427 0.29504-0.25289 0.72648-0.29548 1.0427-0.52135 0.29998-0.21427 0.49881-0.54601 0.78201-0.78201 1.4404-1.2003 1.7e-4 0.21709 1.8247-1.3034 1.4857-1.2381-0.63012 0.2463 1.3034-1.0427 0.52134-0.34756 1.0267-0.72032 1.564-1.0427 0.1666-0.1 0.36591-0.14409 0.52134-0.26067 0.19661-0.14746 0.34756-0.34756 0.52134-0.52134 0.08842-0.0884 1.1687-1.236 1.3034-1.3034 0.07772-0.0389 0.17378 0 0.26067 0 0.08689 0 0.26067-0.0869 0.26067 0s-0.18295-0.0389-0.26067 0c-0.10991 0.055-0.17378 0.17378-0.26067 0.26067-0.08689 0.0869-0.17378 0.17378-0.26067 0.26067l-1.0427 1.0427c-0.17378 0.17378-0.36401 0.33254-0.52134 0.52134-0.27813 0.33376-0.49928 0.71283-0.78201 1.0427-0.47982 0.55979-1.0842 1.0042-1.564 1.564-0.28274 0.32986-0.49592 0.71573-0.78201 1.0427-0.56642 0.64735-1.2649 1.1716-1.8247 1.8247-0.28274 0.32986-0.52134 0.69512-0.78201 1.0427-0.34756 0.34756-0.71613 0.67531-1.0427 1.0427-0.94178 1.0595-1.7568 2.2555-2.6067 3.3887-0.79448 1.0593-0.76954 1.0261-1.564 2.0854-0.17711 0.23615-1.1128 1.4435-1.3034 1.8247-0.12288 0.24577-0.13779 0.53625-0.26067 0.78202-0.45176 0.90353-0.59092 0.66049-1.0427 1.564-0.12288 0.24576-0.17378 0.52134-0.26067 0.78201s-0.17378 0.52134-0.26067 0.78202c-0.08689 0.26067-0.1193 0.54639-0.26067 0.78201-0.12644 0.21074-0.43007 0.29315-0.52134 0.52134-0.09681 0.24203 0.05112 0.5264 0 0.78201-0.0381 0.19052-0.17378 0.34756-0.26067 0.52134-0.26067 0.52134-0.52134 1.0427-0.78201 1.564-0.08689 0.17378-0.21355 0.33285-0.26067 0.52134-0.04215 0.16859 0.04215 0.35275 0 0.52134-0.09425 0.37698-0.4271 0.6657-0.52134 1.0427 0 1.1866 0.12288 0.0149-0.26067 0.78201-0.03886 0.0777 0.03886 0.18296 0 0.26068-0.05495 0.1099-0.20572 0.15076-0.26067 0.26067-0.03886 0.0777 0 0.17378 0 0.26067 0 0.26967-0.06144 0.36028 0.26067 0.52134 0.07772 0.0389 0.17378 0 0.26067 0h0.26067c0.17378 0 0.35275 0.0421 0.52134 0 0.18849-0.0471 0.34756-0.17378 0.52134-0.26067 0.17378-0.0869 0.34756-0.17378 0.52134-0.26067 0.34756-0.17378 0.7053-0.32855 1.0427-0.52134 0.27201-0.15544 0.52134-0.34757 0.78201-0.52135l2.346-1.564c0.96125-0.64083 1.855-1.2725 2.8674-1.8247 0.51171-0.27911 1.0605-0.48831 1.564-0.78201 0.54122-0.31571 1.0228-0.72697 1.564-1.0427 0.50348-0.2937 1.0605-0.48832 1.564-0.78201 3.076-1.7943 0.14503-0.33978 2.8674-1.8247 0.51171-0.27911 1.0605-0.48831 1.564-0.78201 0.54122-0.31571 1.0354-0.70629 1.564-1.0427 0.42744-0.27201 0.88829-0.49147 1.3034-0.78202 0.4558-0.31905 0.84043-0.73406 1.3034-1.0427 0.84312-0.56208 1.7543-1.0161 2.6067-1.564 0.36545-0.23494 0.67427-0.55176 1.0427-0.78201 0.32952-0.20595 0.71316-0.3154 1.0427-0.52135 0.36841-0.23025 0.68916-0.52949 1.0427-0.78201 0.25493-0.18209 0.53738-0.32563 0.78201-0.52134 0.19191-0.15353 0.3106-0.3949 0.52134-0.52134 0.23562-0.14137 0.5464-0.1193 0.78202-0.26067 0.21074-0.12645 0.32473-0.37389 0.52134-0.52134 0.15543-0.11658 0.35968-0.1529 0.52134-0.26067 0.18103-0.12069 0.81224-1.0125 1.0427-0.78202 0.20378 0.20378-0.22673 0.45348-0.26067 0.52135-0.36394 0.72787 1.0908-0.42711-0.52134 0.78201-0.15543 0.11657-0.38395 0.12328-0.52134 0.26067-0.22153 0.22153-0.32078 0.54134-0.52134 0.78201-0.236 0.2832-0.5421 0.50212-0.78201 0.78201-0.28274 0.32986-0.47481 0.73548-0.78202 1.0427-0.3072 0.3072-0.71572 0.49592-1.0427 0.78201-0.36991 0.32367-0.67277 0.71901-1.0427 1.0427-0.32696 0.28609-0.73548 0.47481-1.0427 0.78201-0.3072 0.30721-0.47481 0.73548-0.78201 1.0427-2.7291 2.7291 0.44528-0.98971-1.8247 1.564-4.4911 5.0524 0.45208-0.49993-1.8247 2.346-0.15353 0.1919-0.36782 0.32943-0.52134 0.52134-0.19571 0.24463-0.32078 0.54134-0.52134 0.78201-0.236 0.2832-0.52134 0.52134-0.78201 0.78201-0.17378 0.17378-0.32943 0.36782-0.52134 0.52134-0.48927 0.39142-1.121 0.59963-1.564 1.0427-0.22153 0.22152-0.29981 0.56048-0.52134 0.78201-0.22153 0.22153-0.52134 0.34756-0.78201 0.52134-0.52134 0.34756-1.0267 0.72031-1.564 1.0427-0.1666 0.1-0.35474 0.16071-0.52134 0.26067-0.26864 0.16119-0.52134 0.34756-0.78201 0.52135-0.26067 0.17378-0.53738 0.32563-0.78201 0.52134-0.38382 0.30705-0.65887 0.73563-1.0427 1.0427-0.24464 0.19571-0.53738 0.32563-0.78201 0.52134-0.70484 0.56387-1.0139 1.3977-1.564 2.0854-0.30705 0.38381-0.69512 0.69512-1.0427 1.0427" fill="none" stroke="#000" stroke-linecap="butt" stroke-width="1px"/>
<path d="m104.01 157.97c-1.9985-0.17378-3.9894-0.52135-5.9954-0.52135-0.24576 0-0.38502 0.31686-0.52134 0.52135-0.02646 0.0397-1.4 2.3754-1.564 2.8674-0.05495 0.16487 0 0.34756 0 0.52135v0.52134 1.0427c0 0.0869-0.02748 0.17824 0 0.26067 0.06144 0.18432 0.19923 0.33702 0.26067 0.52134 0.02748 0.0824-0.03886 0.18296 0 0.26067 0.05495 0.10991 0.17378 0.17378 0.26067 0.26067 1.299 1.299 0.02236 0.26813 0.78201 0.52134 1.0152 0.33839 0.02439 0.26068 1.0427 0.26068h1.564c0.17378 0 0.35274 0.0421 0.52134 0 0.18849-0.0471 0.34756-0.17379 0.52134-0.26068 0.17378-0.0869 0.36591-0.14409 0.52134-0.26067 0.29491-0.22118 0.52134-0.52134 0.78201-0.78201 0.17378-0.17378 0.32473-0.37388 0.52134-0.52134 0.15544-0.11658 0.38396-0.12328 0.52134-0.26067 0.13739-0.13739 0.1529-0.35968 0.26068-0.52134 0.0682-0.10225 0.1925-0.15843 0.26067-0.26067 0.10777-0.16166 0.15289-0.35968 0.26067-0.52134 0.15819-0.2373 0.66649-0.55097 0.78201-0.78202 0.0389-0.0777-0.0275-0.17824 0-0.26067 0.0614-0.18432 0.19923-0.33702 0.26067-0.52134 0.0519-0.15578-0.13488-0.52134 0.26067-0.52134 0.0869 0 0.0614 0.19923 0 0.26067-0.0614 0.0614-0.19923-0.0614-0.26067 0-0.0614 0.0614 0.0275 0.17824 0 0.26067-0.0614 0.18432-0.19923 0.33702-0.26067 0.52134-0.0275 0.0824 0.0389 0.18296 0 0.26067-0.055 0.10991-0.22181 0.1441-0.26067 0.26067-0.055 0.16487 0.0422 0.35275 0 0.52135-0.0943 0.37698-0.37703 0.68189-0.52134 1.0427-0.2041 0.51024-0.34756 1.0427-0.52134 1.564-0.0869 0.26067-0.13779 0.53625-0.26068 0.78202-0.28021 0.56042-0.73839 1.0163-1.0427 1.564l-0.78201 1.564c-0.17378 0.17378-0.3949 0.31061-0.52134 0.52135-0.14137 0.23561-0.1193 0.54639-0.26067 0.78201-0.12645 0.21074-0.37389 0.32473-0.52134 0.52134-0.11658 0.15543-0.1529 0.35968-0.26068 0.52134-0.06816 0.10224-0.22181 0.1441-0.26067 0.26067-0.15475 0.46424 0.2811 0.78201-0.52134 0.78201" fill="none" stroke="#000" stroke-linecap="butt" stroke-width="1px"/>
<path d="m117.3 175.7c-0.8689 1.8247-1.7029 3.6664-2.6067 5.4741-0.6254 1.2508-2.5652 2.7321-3.128 3.3887-0.25289 0.29504-0.28819 0.73181-0.52134 1.0427-3.2127 4.2836-0.60233-0.1991-3.128 4.4314-0.18608 0.34114-0.3058 0.71937-0.52134 1.0427-0.0682 0.10224-0.20572 0.15076-0.26067 0.26067-0.0389 0.0777-0.0615 0.32211 0 0.26067 0.13738-0.13739 0.17378-0.34756 0.26067-0.52134" fill="none" stroke="#000" stroke-linecap="butt" stroke-width="1px"/>
<path d="m117.3 175.7-2.6067 5.7348" fill="none" stroke="#000" stroke-linecap="butt" stroke-width="1px"/>
<path d="m120.17 177c1.9116 0.69512 3.8406 1.3442 5.7348 2.0854 0.20907 0.0818 0.77511 1.0335 0.78201 1.0427 0.0737 0.0983 0.20572 0.15076 0.26067 0.26067 0.0389 0.0777-0.0211 0.17637 0 0.26067 0.0666 0.26657 0.13779 0.53625 0.26067 0.78201 0.0549 0.10991 0.20572 0.15076 0.26067 0.26067 0.0321 0.0642 0.0189 1.2466 0 1.3034-0.0389 0.11657-0.19251 0.15842-0.26067 0.26067-0.10777 0.16166-0.1529 0.35968-0.26067 0.52134-0.0682 0.10224-0.20572 0.15076-0.26067 0.26067-0.0389 0.0777 0.0389 0.18295 0 0.26067-0.28818 0.57636-0.16178 0.0809-0.52134 0.26067-0.21982 0.10991-0.30153 0.41143-0.52134 0.52134-0.0777 0.0389-0.17824-0.0275-0.26067 0-0.18433 0.0614-0.33702 0.19923-0.52135 0.26067-0.0824 0.0275-0.18295-0.0389-0.26067 0-0.1099 0.055-0.14409 0.22181-0.26067 0.26067-0.16486 0.055-0.34756 0-0.52134 0-0.0869 0-0.18295-0.0389-0.26067 0-0.10991 0.055-0.15076 0.20572-0.26067 0.26067-0.0909 0.0454-1.3727 0-1.564 0h-1.3034c-0.26067 0-0.53472 0.0824-0.78201 0-0.11658-0.0389-0.1441-0.22181-0.26067-0.26067-0.16486-0.0549-0.34756 0-0.52134 0-0.0869 0-0.18296 0.0389-0.26067 0-0.10991-0.0549-0.15077-0.20571-0.26067-0.26067-0.15544-0.0777-0.36591 0.0777-0.52135 0-0.1099-0.0549-0.15076-0.20572-0.26067-0.26067-0.15543-0.0777-0.3659 0.0777-0.52134 0-0.0692-0.0346-0.7474-0.7128-0.78201-0.78201-0.0389-0.0777 0.0614-0.19923 0-0.26067-0.0614-0.0614-0.19923 0.0614-0.26067 0-0.0614-0.0614 0.0389-0.18296 0-0.26067-0.16106-0.32211-0.25167-0.26067-0.52134-0.26067-0.0869 0-0.26067 0.0869-0.26067 0s0.17378 0 0.26067 0c1.0378 0 0.29953 0.0777-0.78201-2.0854" fill="none" stroke="#000" stroke-linecap="butt" stroke-width="1px"/>
<path d="m137.11 195.77c2.4549 2.7183 4.8541 5.5836 7.5594 8.0808 0.31924 0.29468 0.71976 0.49138 1.0427 0.78201 0.54802 0.49322 1.016 1.0708 1.564 1.564 0.32292 0.29063 0.71282 0.49927 1.0427 0.78201 0.27989 0.23991 0.49881 0.54601 0.78201 0.78201 0.24068 0.20056 0.56049 0.29982 0.78201 0.52134 0.22153 0.22153 0.32564 0.53738 0.52134 0.78202 0.30706 0.38381 0.7898 0.6212 1.0427 1.0427 0.14137 0.23561 0.17378 0.52134 0.26067 0.78201" fill="none" stroke="#000" stroke-linecap="butt" stroke-width="1px"/>
</svg>
